<svg xmlns="http://www.w3.org/2000/svg" width="364.28594970703125" height="266.164794921875" viewBox="-160.09776306152344 -52.49132537841797 364.28594970703125 266.164794921875"><title>Neo4j Graph Visualization</title><desc>Created using Neo4j (http://www.neo4j.com/)</desc><g class="layer relationships"><g class="relationship" transform="translate(-12.89429573016028 112.70992455149474) rotate(513.4017578687456)"><path class="outline" fill="#A5ABB6" stroke="none" d="M 25 0.5 L 43.00120026590619 0.5 L 43.00120026590619 -0.5 L 25 -0.5 Z M 82.19260651590619 0.5 L 100.19380678181238 0.5 L 100.19380678181238 3.5 L 107.19380678181238 0 L 100.19380678181238 -3.5 L 100.19380678181238 -0.5 L 82.19260651590619 -0.5 Z"/><text text-anchor="middle" pointer-events="none" font-size="8px" fill="#000000" x="62.59690339090619" y="3" transform="rotate(180 62.59690339090619 0)" font-family="sans-serif">TAGGED</text></g><g class="relationship" transform="translate(175.18817394593157 22.873470032257128) rotate(514.4688084705717)"><path class="outline" fill="#A5ABB6" stroke="none" d="M 25 0.5 L 84.15749853946393 0.5 L 84.15749853946393 -0.5 L 25 -0.5 Z M 117.27859228946393 0.5 L 176.43609082892786 0.5 L 176.43609082892786 3.5 L 183.43609082892786 0 L 176.43609082892786 -3.5 L 176.43609082892786 -0.5 L 117.27859228946393 -0.5 Z"/><text text-anchor="middle" pointer-events="none" font-size="8px" fill="#000000" x="100.71804541446393" y="3" transform="rotate(180 100.71804541446393 0)" font-family="sans-serif">ASKED</text></g><g class="relationship" transform="translate(123.57221000857082 184.67347991627923) rotate(207.8042474058566)"><path class="outline" fill="#A5ABB6" stroke="none" d="M 25 0.5 L 47.52597673398557 0.5 L 47.52597673398557 -0.5 L 25 -0.5 Z M 99.75253923398557 0.5 L 122.27851596797115 0.5 L 122.27851596797115 3.5 L 129.27851596797115 0 L 122.27851596797115 -3.5 L 122.27851596797115 -0.5 L 99.75253923398557 -0.5 Z"/><text text-anchor="middle" pointer-events="none" font-size="8px" fill="#000000" x="73.63925798398557" y="3" transform="rotate(180 73.63925798398557 0)" font-family="sans-serif">ANSWERED</text></g><g class="relationship" transform="translate(175.18817394593157 22.873470032257128) rotate(194.72490809349563)"><path class="outline" fill="#A5ABB6" stroke="none" d="M 25 0.5 L 58.48451282398861 0.5 L 58.48451282398861 -0.5 L 25 -0.5 Z M 116.92591907398861 0.5 L 150.41043189797722 0.5 L 150.41043189797722 3.5 L 157.41043189797722 0 L 150.41043189797722 -3.5 L 150.41043189797722 -0.5 L 116.92591907398861 -0.5 Z"/><text text-anchor="middle" pointer-events="none" font-size="8px" fill="#000000" x="87.70521594898861" y="3" transform="rotate(180 87.70521594898861 0)" font-family="sans-serif">COMMENTED</text></g><g class="relationship" transform="translate(-1.231415184271782 -23.49132519361244) rotate(454.8942848652609)"><path class="outline" fill="#A5ABB6" stroke="none" d="M 25 0.5 L 27.404528785032852 0.5 L 27.404528785032852 -0.5 L 25 -0.5 Z M 102.29515378503285 0.5 L 104.6996825700657 0.5 L 104.6996825700657 3.5 L 111.6996825700657 0 L 104.6996825700657 -3.5 L 104.6996825700657 -0.5 L 102.29515378503285 -0.5 Z"/><text text-anchor="middle" pointer-events="none" font-size="8px" fill="#000000" x="64.84984128503285" y="3" transform="rotate(180 64.84984128503285 0)" font-family="sans-serif">COMMENTED_ON</text></g><g class="relationship" transform="translate(175.18817394593157 22.873470032257128) rotate(467.69324880148105)"><path class="outline" fill="#A5ABB6" stroke="none" d="M 25 0.5 L 57.524220760221425 0.5 L 57.524220760221425 -0.5 L 25 -0.5 Z M 105.30937701022143 0.5 L 137.83359777044285 0.5 L 137.83359777044285 3.5 L 144.83359777044285 0 L 137.83359777044285 -3.5 L 137.83359777044285 -0.5 L 105.30937701022143 -0.5 Z"/><text text-anchor="middle" pointer-events="none" font-size="8px" fill="#000000" x="81.41679888522143" y="3" transform="rotate(180 81.41679888522143 0)" font-family="sans-serif">PROVIDED</text></g></g><g class="layer nodes"><g class="node" transform="translate(123.57221000857082,184.67347991627923)"><circle class="outline" cx="0" cy="0" r="25" fill="#F16667" stroke="#eb2728" stroke-width="2px"/><text text-anchor="middle" pointer-events="none" font-family="sans-serif" dy="1.5625" font-size="25" fill="#FFFFFF"/><text text-anchor="middle" pointer-events="none" x="0" y="5" font-size="10px" fill="#FFFFFF" font-family="sans-serif"> Answer</text></g><g class="node" transform="translate(-1.231415184271782,-23.49132519361244)"><circle class="outline" cx="0" cy="0" r="25" fill="#8DCC93" stroke="#5db665" stroke-width="2px"/><text text-anchor="middle" pointer-events="none" font-family="sans-serif" dy="1.5625" font-size="25" fill="#2A2C34"/><text text-anchor="middle" pointer-events="none" x="0" y="5" font-size="10px" fill="#2A2C34" font-family="sans-serif"> Comment</text></g><g class="node" transform="translate(175.18817394593157,22.873470032257128)"><circle class="outline" cx="0" cy="0" r="25" fill="#57C7E3" stroke="#23b3d7" stroke-width="2px"/><text text-anchor="middle" pointer-events="none" font-family="sans-serif" dy="1.5625" font-size="25" fill="#2A2C34"/><text text-anchor="middle" pointer-events="none" x="0" y="5" font-size="10px" fill="#2A2C34" font-family="sans-serif"> User</text></g><g class="node" transform="translate(-12.89429573016028,112.70992455149474)"><circle class="outline" cx="0" cy="0" r="25" fill="#4C8EDA" stroke="#2870c2" stroke-width="2px"/><text text-anchor="middle" pointer-events="none" font-family="sans-serif" dy="1.5625" font-size="25" fill="#FFFFFF"/><text text-anchor="middle" pointer-events="none" x="0" y="5" font-size="10px" fill="#FFFFFF" font-family="sans-serif"> Question</text></g><g class="node" transform="translate(-131.09776410698862,171.89727636888296)"><circle class="outline" cx="0" cy="0" r="25" fill="#ECB5C9" stroke="#da7298" stroke-width="2px"/><text text-anchor="middle" pointer-events="none" font-family="sans-serif" dy="1.5625" font-size="25" fill="#2A2C34"/><text text-anchor="middle" pointer-events="none" x="0" y="5" font-size="10px" fill="#2A2C34" font-family="sans-serif"> Tag</text></g></g></svg>